<mxfile host="app.diagrams.net" modified="2021-11-12T10:33:06.965Z" agent="5.0 (Macintosh; Intel Mac OS X 10_15_7) AppleWebKit/537.36 (KHTML, like Gecko) Chrome/95.0.4638.69 Safari/537.36" etag="T6jFfgMlplg_HeHN8FHv" version="15.7.3" type="github">
  <diagram id="1ZEahiOKhajZeWc9lGB9" name="Page-1">
    <mxGraphModel dx="2066" dy="769" grid="1" gridSize="10" guides="1" tooltips="1" connect="1" arrows="1" fold="1" page="1" pageScale="1" pageWidth="850" pageHeight="1100" math="0" shadow="0">
      <root>
        <mxCell id="0" />
        <mxCell id="1" parent="0" />
        <mxCell id="uvl34uvF_bkpaBie-aDc-5" style="edgeStyle=orthogonalEdgeStyle;rounded=0;orthogonalLoop=1;jettySize=auto;html=1;exitX=0;exitY=0.5;exitDx=0;exitDy=0;entryX=0.25;entryY=0;entryDx=0;entryDy=0;fontSize=17;" edge="1" parent="1" source="uvl34uvF_bkpaBie-aDc-1" target="uvl34uvF_bkpaBie-aDc-2">
          <mxGeometry relative="1" as="geometry" />
        </mxCell>
        <mxCell id="uvl34uvF_bkpaBie-aDc-6" style="edgeStyle=orthogonalEdgeStyle;rounded=0;orthogonalLoop=1;jettySize=auto;html=1;exitX=1;exitY=0.5;exitDx=0;exitDy=0;entryX=0.75;entryY=0;entryDx=0;entryDy=0;fontSize=17;" edge="1" parent="1" source="uvl34uvF_bkpaBie-aDc-1" target="uvl34uvF_bkpaBie-aDc-3">
          <mxGeometry relative="1" as="geometry" />
        </mxCell>
        <mxCell id="uvl34uvF_bkpaBie-aDc-1" value="&lt;span style=&quot;color: rgb(63 , 63 , 63) ; font-family: &amp;#34;helvetica neue&amp;#34; , &amp;#34;arial&amp;#34; , &amp;#34;hiragino sans gb&amp;#34; , &amp;#34;stheiti&amp;#34; , &amp;#34;microsoft yahei&amp;#34; , &amp;#34;wenquanyi micro hei&amp;#34; ; font-size: 19.2px ; font-weight: 600 ; background-color: rgb(255 , 255 , 255)&quot;&gt;MindSPONGE &lt;/span&gt;" style="rounded=0;whiteSpace=wrap;html=1;" vertex="1" parent="1">
          <mxGeometry x="400" y="80" width="150" height="60" as="geometry" />
        </mxCell>
        <mxCell id="uvl34uvF_bkpaBie-aDc-2" value="&lt;span style=&quot;color: rgb(63 , 63 , 63) ; font-family: &amp;#34;helvetica neue&amp;#34; , &amp;#34;arial&amp;#34; , &amp;#34;hiragino sans gb&amp;#34; , &amp;#34;stheiti&amp;#34; , &amp;#34;microsoft yahei&amp;#34; , &amp;#34;wenquanyi micro hei&amp;#34; ; font-size: 19.2px ; font-weight: 600 ; background-color: rgb(255 , 255 , 255)&quot;&gt;MindSpore框架&lt;/span&gt;" style="rounded=0;whiteSpace=wrap;html=1;" vertex="1" parent="1">
          <mxGeometry x="310" y="170" width="150" height="60" as="geometry" />
        </mxCell>
        <mxCell id="uvl34uvF_bkpaBie-aDc-3" value="&lt;b&gt;&lt;font style=&quot;font-size: 17px&quot;&gt;Amber等科学计算传统的模拟工具&lt;/font&gt;&lt;/b&gt;" style="rounded=0;whiteSpace=wrap;html=1;" vertex="1" parent="1">
          <mxGeometry x="490" y="170" width="190" height="60" as="geometry" />
        </mxCell>
      </root>
    </mxGraphModel>
  </diagram>
</mxfile>
